<mxfile host="app.diagrams.net" modified="2023-05-18T15:32:36.624Z" agent="Mozilla/5.0 (Windows NT 10.0; Win64; x64) AppleWebKit/537.36 (KHTML, like Gecko) Chrome/111.0.0.0 Safari/537.36" etag="lwS5DoIqEMLGszkaZMoz" version="21.3.2" type="onedrive">
  <diagram name="Página-1" id="oYHDtPhCiddaFadUpBk9">
    <mxGraphModel grid="1" page="1" gridSize="10" guides="1" tooltips="1" connect="1" arrows="1" fold="1" pageScale="1" pageWidth="827" pageHeight="1169" math="0" shadow="0">
      <root>
        <mxCell id="0" />
        <mxCell id="1" parent="0" />
        <mxCell id="YSRFyqcoKSjsWxvncOWg-3" style="edgeStyle=orthogonalEdgeStyle;rounded=0;orthogonalLoop=1;jettySize=auto;html=1;entryX=0.5;entryY=0;entryDx=0;entryDy=0;" edge="1" parent="1" source="YSRFyqcoKSjsWxvncOWg-1" target="YSRFyqcoKSjsWxvncOWg-2">
          <mxGeometry relative="1" as="geometry" />
        </mxCell>
        <mxCell id="YSRFyqcoKSjsWxvncOWg-1" value="Início" style="ellipse;whiteSpace=wrap;html=1;" vertex="1" parent="1">
          <mxGeometry x="340" y="600" width="120" height="80" as="geometry" />
        </mxCell>
        <mxCell id="YSRFyqcoKSjsWxvncOWg-6" style="edgeStyle=orthogonalEdgeStyle;rounded=0;orthogonalLoop=1;jettySize=auto;html=1;entryX=0.5;entryY=0;entryDx=0;entryDy=0;" edge="1" parent="1" source="YSRFyqcoKSjsWxvncOWg-2" target="YSRFyqcoKSjsWxvncOWg-4">
          <mxGeometry relative="1" as="geometry" />
        </mxCell>
        <mxCell id="YSRFyqcoKSjsWxvncOWg-7" style="edgeStyle=orthogonalEdgeStyle;rounded=0;orthogonalLoop=1;jettySize=auto;html=1;entryX=0.5;entryY=0;entryDx=0;entryDy=0;" edge="1" parent="1" source="YSRFyqcoKSjsWxvncOWg-2" target="YSRFyqcoKSjsWxvncOWg-5">
          <mxGeometry relative="1" as="geometry" />
        </mxCell>
        <mxCell id="YSRFyqcoKSjsWxvncOWg-2" value="salario&amp;gt;gasto mensal" style="shape=parallelogram;perimeter=parallelogramPerimeter;whiteSpace=wrap;html=1;fixedSize=1;" vertex="1" parent="1">
          <mxGeometry x="320" y="760" width="160" height="60" as="geometry" />
        </mxCell>
        <mxCell id="YSRFyqcoKSjsWxvncOWg-9" style="edgeStyle=orthogonalEdgeStyle;rounded=0;orthogonalLoop=1;jettySize=auto;html=1;entryX=0.5;entryY=0;entryDx=0;entryDy=0;" edge="1" parent="1" source="YSRFyqcoKSjsWxvncOWg-4" target="YSRFyqcoKSjsWxvncOWg-8">
          <mxGeometry relative="1" as="geometry" />
        </mxCell>
        <mxCell id="YSRFyqcoKSjsWxvncOWg-4" value="&quot;Sua conta está com saldo positivo&quot;,&quot;Seu saldo é de:&quot;, resul" style="shape=document;whiteSpace=wrap;html=1;boundedLbl=1;" vertex="1" parent="1">
          <mxGeometry x="140" y="820" width="160" height="80" as="geometry" />
        </mxCell>
        <mxCell id="YSRFyqcoKSjsWxvncOWg-10" style="edgeStyle=orthogonalEdgeStyle;rounded=0;orthogonalLoop=1;jettySize=auto;html=1;entryX=0.5;entryY=0;entryDx=0;entryDy=0;" edge="1" parent="1" source="YSRFyqcoKSjsWxvncOWg-5" target="YSRFyqcoKSjsWxvncOWg-8">
          <mxGeometry relative="1" as="geometry" />
        </mxCell>
        <mxCell id="YSRFyqcoKSjsWxvncOWg-5" value="&quot;Sua conta está com saldo negativo&quot;,&quot;Seu saldo é de:&quot;,resul" style="shape=document;whiteSpace=wrap;html=1;boundedLbl=1;" vertex="1" parent="1">
          <mxGeometry x="520" y="820" width="120" height="80" as="geometry" />
        </mxCell>
        <mxCell id="YSRFyqcoKSjsWxvncOWg-8" value="Fim" style="ellipse;whiteSpace=wrap;html=1;" vertex="1" parent="1">
          <mxGeometry x="340" y="920" width="120" height="80" as="geometry" />
        </mxCell>
      </root>
    </mxGraphModel>
  </diagram>
</mxfile>
